# xmcd CD database file
#
# Track frame offsets:
#	150
#	21730
#	43817
#	65407
#
# Disc length: 1163 seconds
#
# Revision: 1
# Processed by: cddbd v1.5.1PL2 Copyright (c) Steve Scherf et al.
# Submitted via: jetAudio 5
#
DISCID=37048904
DTITLE=angela - DEAD SET
DYEAR=2005
DGENRE=
TTITLE0=DEAD SET
TTITLE1=?????
TTITLE2=DEAD SET (Off Vocal Ver)
TTITLE3=????? (Off Vocal Ver)
EXTD=YEAR: 2005
EXTT0=
EXTT1=
EXTT2=
EXTT3=
PLAYORDER=
